<svg xmlns="http://www.w3.org/2000/svg" viewBox="0 0 912.06 133.76"><defs><style>.cls-1{fill:#e1251b;}</style></defs><g id="图层_2" data-name="图层 2"><g id="图层_1-2" data-name="图层 1"><path d="M417.81,34.41h54.24V45.9H346.28V34.41h54V26.94h17.57ZM361.5,97.92h18.82L358,131H346.28ZM417.81,90V108.3q0,14.11-8,20.2-6.92,5.26-20.89,5.26V122.27q6.23-.27,8.71-2.76t2.63-8.72V90H354.17V53.65H464V90ZM371.19,78.41h76V65.13h-76Zm85.37,19.51L472.05,131H460L437.74,97.92Z"/><path d="M565.87,85.05v23.39q0,25.32-29.06,25.32V122.55q6.36-.55,8.85-3.18c1.75-1.84,2.63-4.89,2.63-9.13V85.05H497.93L513.15,45.9H493V34.27h24.63l2.9-7.33h17.71l-2.77,7.33h83.3V45.9H530.86L520.07,73.71h28.22V56.55h17.58V73.71h47.87V85.05Zm-57,11.35h18.82L504.85,131H493Zm93.81,0L618.72,131h-12l-23-34.59Z"/><path d="M675,72.46v61.3H659.26V65.41a350.93,350.93,0,0,1-11.48,51.47h-9.13q5-20.89,9.27-52.44h-8.3V53.92h19.64v-13H642.38V30.4h25.74q13.7,0,23.38-2.77V38.7A134.72,134.72,0,0,1,675,40.64V53.92h17.85V64.44H675v6.92h12l5.68,38.6H684Zm80.11,33.76v27.54h-16.6V106.92L696.48,109V98.06l42.07-2.21V26.94h16.6V95.15l10.24-.55v11.07ZM715.44,63.05l12.87,20.76H716L697.45,63.05ZM720,34.41l12.72,20.48H720.56L701.88,34.41Z"/><path d="M817.69,84.92v22.13q0,13.58-6.92,19.65-5.94,5.12-18.54,6.78V122.83q5.67-1.11,7.61-5c.92-1.85,1.39-5,1.39-9.55V89.07l-15,3.87V81l15-3.87V53.37h-15V42.44h15V26.94h16.46v15.5h10.24V53.37H817.69V73l11.07-2.91V81.87Zm63,24.62q12.87,8.17,31.41,13.29v10.93q-24.63-5.26-42.62-16.6a167.23,167.23,0,0,1-39.57,16.6V122.83a146.23,146.23,0,0,0,29.47-13A77.28,77.28,0,0,1,835.4,77.58h16.47a74.2,74.2,0,0,0,18.68,24.49Q886.6,88.8,891.44,72.88H834.57V61.81h28.37V49.36H832.08V38.29h30.86V26.94H879.4V38.29h31.13V49.36H879.4V61.81h28.09V72.88Q901.4,93.91,880.65,109.54Z"/><path class="cls-1" d="M159.44,0h-23V26.94h23a39.91,39.91,0,0,1,0,79.82h-23V26.94H109.5V133.76h26.94v-.06h23a66.85,66.85,0,1,0,0-133.7Z"/><path class="cls-1" d="M40.22,0V26.94H67.16V85.26A21.5,21.5,0,0,1,26.81,95.61a20.35,20.35,0,0,1-1.42-3.16L0,101.46a47.75,47.75,0,0,0,3.21,7.15A48.45,48.45,0,0,0,94.1,85.26V0H40.22Z"/><polygon class="cls-1" points="277.13 0 272.47 0 218.59 0 218.59 26.94 252.26 26.94 252.26 133.76 279.2 133.76 279.2 26.94 312.88 26.94 312.88 0 277.13 0"/></g></g></svg>